<?xml version="1.0" encoding="utf-8"?>
<!-- Generator: Adobe Illustrator 23.0.1, SVG Export Plug-In . SVG Version: 6.00 Build 0)  -->
<svg version="1.1" id="圖層_1" xmlns="http://www.w3.org/2000/svg" xmlns:xlink="http://www.w3.org/1999/xlink" x="0px" y="0px"
	 viewBox="0 0 841.89 595.28" style="enable-background:new 0 0 841.89 595.28;" xml:space="preserve">
<style type="text/css">
	.st0{fill:url(#SVGID_1_);}
	.st1{fill:url(#SVGID_2_);}
	.st2{fill:url(#SVGID_3_);}
	.st3{fill:url(#SVGID_4_);}
	.st4{fill:url(#SVGID_5_);}
	.st5{fill:url(#SVGID_6_);}
	.st6{fill:url(#SVGID_7_);}
	.st7{fill:url(#SVGID_8_);}
	.st8{fill:url(#SVGID_9_);}
	.st9{fill:url(#SVGID_10_);}
	.st10{fill:url(#SVGID_11_);}
	.st11{fill:url(#SVGID_12_);}
	.st12{fill:url(#SVGID_13_);}
	.st13{fill:url(#SVGID_14_);}
</style>
<g>
	
		<linearGradient id="SVGID_1_" gradientUnits="userSpaceOnUse" x1="357.8127" y1="282.9606" x2="397.1922" y2="282.9606" gradientTransform="matrix(0.9875 0.1579 -0.1579 0.9875 51.5482 -62.0405)">
		<stop  offset="0.751" style="stop-color:#F1942E"/>
		<stop  offset="0.9719" style="stop-color:#FFF21F"/>
	</linearGradient>
	<path class="st0" d="M375.62,283.37c3.13-3.29,5.83-6.15,8.08-8.59c2.25-2.44,4.01-4.36,5.3-5.76c1.28-1.4,2.41-2.59,3.39-3.56
		c0.98-0.97,1.6-1.46,1.88-1.46c0.53-0.03,1.04,0.59,1.54,1.88c0.5,1.29,0.75,2.31,0.76,3.09c0.01,0.51-0.71,1.71-2.15,3.6
		c-1.44,1.89-2.51,3.41-3.22,4.53c-0.71,1.13-1.06,2.3-1.04,3.53c0.01,0.72,0.22,1.3,0.64,1.73c0.42,0.43,0.92,0.65,1.49,0.64
		c0.67-0.01,1.46-0.42,2.38-1.23c0.92-0.81,2.37-2.25,4.35-4.33l0.03,2.84c-1.97,2.21-3.77,4.12-5.38,5.72
		c-1.61,1.61-3.02,2.81-4.22,3.61c-1.2,0.8-2.2,1.21-3.01,1.22c-0.71,0.01-1.31-0.3-1.81-0.92c-0.49-0.62-0.74-1.4-0.75-2.33
		c-0.01-0.91,0.11-1.83,0.38-2.76c0.26-0.94,0.68-2.05,1.24-3.33c0.56-1.28,1.3-2.83,2.22-4.64c0.92-1.81,1.76-3.47,2.53-4.97
		c-2.32,2.24-4.38,4.4-6.17,6.47c-1.79,2.07-3.26,3.88-4.39,5.43c-1.13,1.54-2.02,2.76-2.68,3.65c-1.27,1.67-2.45,2.51-3.56,2.52
		c-1.2,0.01-1.81-0.96-1.83-2.94c-0.01-0.8,0.42-2.24,1.29-4.31c0.87-2.07,2.12-4.72,3.73-7.94c0.14-0.21,0.2-0.55,0.19-1
		c-0.01-0.53-0.24-0.8-0.7-0.79c-0.51,0.01-1.23,0.57-2.17,1.68c-0.94,1.12-2.76,3.45-5.46,7c-0.75,0.99-1.59,2.29-2.52,3.88
		c-0.94,1.6-1.61,2.66-2.01,3.2c-0.41,0.54-0.82,0.81-1.23,0.81c-0.83,0.01-1.61-0.83-2.35-2.53c-0.73-1.69-1.11-3.68-1.14-5.94
		c-0.02-1.65,0.2-3.08,0.66-4.28c0.46-1.21,1.17-2.7,2.14-4.5c1.51-2.6,2.75-4.46,3.71-5.58c0.96-1.12,1.99-1.68,3.07-1.69
		c0.67-0.01,1.23,0.14,1.7,0.44c0.46,0.3,0.7,0.72,0.71,1.25c0.01,0.56-0.4,1.48-1.23,2.77c-0.82,1.29-1.87,2.62-3.15,3.99
		c-0.68,0.78-1.32,1.74-1.93,2.88c-0.61,1.14-0.91,1.96-0.9,2.47c0.01,0.72,0.25,1.08,0.74,1.07c0.39,0,1.37-0.95,2.93-2.83
		c1.57-1.88,3.28-3.94,5.15-6.16c1.87-2.22,3.61-4.07,5.21-5.54c1.61-1.47,2.97-2.21,4.1-2.23c0.69-0.01,1.26,0.28,1.72,0.88
		c0.45,0.6,0.69,1.33,0.7,2.21c0.01,0.59-0.32,1.65-1,3.19c-0.67,1.54-1.66,3.44-2.95,5.71
		C379.35,277.4,377.68,280.15,375.62,283.37z"/>
	
		<linearGradient id="SVGID_2_" gradientUnits="userSpaceOnUse" x1="396.2507" y1="276.9819" x2="418.8128" y2="276.9819" gradientTransform="matrix(0.9875 0.1579 -0.1579 0.9875 51.5482 -62.0405)">
		<stop  offset="0.751" style="stop-color:#F1942E"/>
		<stop  offset="0.9719" style="stop-color:#FFF21F"/>
	</linearGradient>
	<path class="st1" d="M420.98,277.26l0.03,2.68c-1.5,1.62-2.71,2.69-3.62,3.24c-0.92,0.55-2.24,0.78-3.96,0.69
		c-2.94,4.14-5.55,6.22-7.83,6.25c-1.29,0.02-2.47-0.46-3.54-1.44c-1.07-0.97-1.93-2.31-2.59-4c-0.65-1.7-0.99-3.6-1.02-5.7
		c-0.02-1.7,0.45-3.6,1.4-5.69c0.95-2.09,2.2-4.04,3.73-5.86c1.53-1.82,3.17-3.29,4.93-4.42c1.76-1.13,3.4-1.7,4.92-1.72
		c1.08-0.01,1.94,0.17,2.56,0.55c0.62,0.38,0.94,0.91,0.95,1.61c0.01,0.53-0.25,1.15-0.77,1.85c0.88,0.2,1.48,0.55,1.81,1.04
		c0.33,0.49,0.5,1.38,0.52,2.69c0.02,1.28-0.23,2.89-0.72,4.84s-1.18,3.78-2.06,5.5l0.63,0.71l0.52-0.01c0.39,0,0.78-0.12,1.15-0.35
		c0.38-0.23,0.71-0.47,1.01-0.73C419.32,278.73,419.97,278.15,420.98,277.26z M413.74,266.84c-1.89,1.36-3.51,2.58-4.86,3.68
		c-1.34,1.1-2.48,2.2-3.41,3.32c-0.93,1.12-1.55,2.23-1.86,3.36c-0.54,2.99-0.81,4.61-0.8,4.84c0.02,1.76,1.09,2.63,3.21,2.6
		c0.99-0.01,2.63-1.02,4.93-3.02c-0.41-1.25-0.62-2.44-0.63-3.59c-0.02-1.68,0.26-3.39,0.83-5.14
		C411.73,271.14,412.59,269.12,413.74,266.84z"/>
	
		<linearGradient id="SVGID_3_" gradientUnits="userSpaceOnUse" x1="418.0393" y1="274.156" x2="441.3392" y2="274.156" gradientTransform="matrix(0.9875 0.1579 -0.1579 0.9875 51.5482 -62.0405)">
		<stop  offset="0.751" style="stop-color:#F1942E"/>
		<stop  offset="0.9719" style="stop-color:#FFF21F"/>
	</linearGradient>
	<path class="st2" d="M425.43,277.37l-0.58,3.36c-0.09,0.43-0.13,0.91-0.12,1.44c0.02,1.44,0.54,2.15,1.58,2.14
		c0.99-0.01,3.37-2.28,7.13-6.8c0-1.73,0.53-3.74,1.6-6.01c1.07-2.27,2.25-4.27,3.55-6c1.3-1.72,2.28-2.58,2.92-2.59
		c1.01-0.01,1.53,0.75,1.55,2.3c0.01,0.93-0.17,2.07-0.54,3.42c-0.37,1.35-0.93,2.81-1.67,4.38c-0.74,1.57-1.65,3.18-2.74,4.85
		c0.59,1.19,1.19,1.78,1.78,1.78c0.51-0.01,1.06-0.22,1.67-0.64c0.6-0.42,1.36-1.06,2.27-1.93l0.03,2.68
		c-1.27,1.19-2.28,2-3.03,2.43c-0.74,0.44-1.7,0.66-2.87,0.68c-0.46,0.01-1.29-0.34-2.5-1.05c-2.31,2.91-4.2,5.08-5.65,6.52
		c-1.45,1.44-2.64,2.17-3.56,2.18c-1.59,0.02-2.95-1.06-4.1-3.24c-1.14-2.18-1.73-4.59-1.76-7.23c-0.04-3.54,1.63-7.81,5.02-12.81
		c1.02-1.5,1.84-2.53,2.47-3.09c0.62-0.55,1.34-0.84,2.14-0.85c0.69-0.01,1.35,0.13,1.97,0.42c0.62,0.29,0.94,0.63,0.94,1.03
		c0.02,1.33-0.73,3.29-2.24,5.88C429.18,273.2,427.43,275.45,425.43,277.37z"/>
	
		<linearGradient id="SVGID_4_" gradientUnits="userSpaceOnUse" x1="440.6558" y1="264.4122" x2="457.5738" y2="264.4122" gradientTransform="matrix(0.9875 0.1579 -0.1579 0.9875 51.5482 -62.0405)">
		<stop  offset="0.751" style="stop-color:#F1942E"/>
		<stop  offset="0.9719" style="stop-color:#FFF21F"/>
	</linearGradient>
	<path class="st3" d="M460.25,276.86l0.04,2.92c-2.19,3.36-4.24,5.89-6.16,7.61c-1.91,1.72-3.55,2.58-4.9,2.6
		c-1.89,0.02-3.3-1.1-4.25-3.38c-0.95-2.28-1.44-4.78-1.47-7.49c-0.01-1.04,0.07-2.03,0.24-2.98c0.17-0.95,0.38-1.73,0.63-2.35
		c0.25-0.61,0.71-1.58,1.38-2.89c3.2-5.93,6.15-8.91,8.87-8.94c1.4-0.02,2.11,0.6,2.13,1.85c0.01,0.85-0.43,2.19-1.32,4.01
		c-0.89,1.82-1.68,3.13-2.39,3.91c-1.97,2.26-3.26,3.84-3.86,4.72c-0.6,0.88-0.89,1.89-0.88,3.01c0.01,0.96,0.33,1.75,0.96,2.39
		c0.63,0.63,1.44,0.94,2.43,0.93c1.08-0.01,2.27-0.49,3.55-1.42C456.54,280.4,458.2,278.91,460.25,276.86z M457.69,259.03
		c-0.57,0.01-1.12-0.24-1.65-0.74c-0.53-0.5-0.79-1.14-0.8-1.91c-0.01-1.17,0.45-2.48,1.4-3.93c0.95-1.45,1.94-2.18,2.98-2.19
		c0.69-0.01,1.27,0.23,1.73,0.72s0.71,1.2,0.72,2.13c0.01,1.15-0.44,2.42-1.37,3.81C459.77,258.32,458.77,259.02,457.69,259.03z"/>
	
		<linearGradient id="SVGID_5_" gradientUnits="userSpaceOnUse" x1="456.7854" y1="266.733" x2="477.524" y2="266.733" gradientTransform="matrix(0.9875 0.1579 -0.1579 0.9875 51.5482 -62.0405)">
		<stop  offset="0.751" style="stop-color:#F1942E"/>
		<stop  offset="0.9719" style="stop-color:#FFF21F"/>
	</linearGradient>
	<path class="st4" d="M465.48,278.24l0.01,1c0.02,1.57,0.37,2.79,1.05,3.66c0.68,0.87,1.56,1.3,2.64,1.29
		c1.13-0.01,2.29-0.34,3.49-0.96c1.2-0.62,2.39-1.45,3.58-2.48c1.19-1.02,2.63-2.4,4.33-4.13l0.03,2.44
		c-2.56,3.65-4.96,6.46-7.22,8.42c-2.25,1.96-4.56,2.95-6.9,2.98c-2.05,0.02-3.68-0.87-4.9-2.7c-1.22-1.82-1.85-4.33-1.89-7.53
		c-0.03-2.8,0.5-5.34,1.6-7.63c1.1-2.29,2.91-4.72,5.43-7.28c1.73-1.75,3.45-3.08,5.16-3.98c1.71-0.9,3.25-1.36,4.61-1.37
		c1.08-0.01,1.94,0.26,2.58,0.83c0.64,0.57,0.97,1.42,0.98,2.57c0.02,1.68-0.5,3.36-1.56,5.03c-1.06,1.68-2.69,3.35-4.89,5.01
		C471.42,275.07,468.7,276.68,465.48,278.24z M465.79,275.64c2.06-0.96,3.82-2.14,5.27-3.54c1.45-1.4,2.53-2.74,3.21-4.01
		c0.69-1.27,1.03-2.21,1.02-2.79c-0.01-0.61-0.25-0.92-0.74-0.91c-0.41,0.01-1.08,0.32-2.01,0.95s-1.86,1.43-2.8,2.43
		c-0.94,1-1.79,2.17-2.53,3.51C466.48,272.61,466,274.06,465.79,275.64z"/>
	
		<linearGradient id="SVGID_6_" gradientUnits="userSpaceOnUse" x1="319.3419" y1="334.0052" x2="348.5818" y2="334.0052" gradientTransform="matrix(0.9875 0.1579 -0.1579 0.9875 51.5482 -62.0405)">
		<stop  offset="0.751" style="stop-color:#F1942E"/>
		<stop  offset="0.9719" style="stop-color:#FFF21F"/>
	</linearGradient>
	<path class="st5" d="M317.57,315.92c3.45-3.72,6.81-6.49,10.08-8.31c3.27-1.82,5.8-2.75,7.6-2.77c0.48-0.01,0.93,0.22,1.35,0.68
		c0.42,0.46,0.76,0.99,1,1.6c0.25,0.61,0.38,1.06,0.38,1.35c0.01,0.48-0.15,0.84-0.47,1.06c-0.32,0.23-0.88,0.51-1.68,0.84
		c0.17,0.42,0.38,0.97,0.64,1.63c0.26,0.66,0.46,1.2,0.61,1.61c0.14,0.41,0.22,0.78,0.22,1.1c0.01,0.64-0.53,1.84-1.63,3.6
		c-1.09,1.76-1.86,3.05-2.3,3.88c-0.44,0.83-0.65,1.85-0.64,3.04c0.02,1.97,0.82,2.95,2.38,2.93c1.61-0.02,4.11-1.79,7.49-5.33
		l0.03,2.44c-5.73,7.55-9.85,11.35-12.35,11.38c-0.9,0.01-1.54-0.32-1.93-1c-0.39-0.67-0.59-1.68-0.61-3.01
		c-0.03-2.1,0.59-5.16,1.85-9.17c-3.31,4.36-5.77,7.46-7.38,9.3s-2.95,2.77-4.01,2.79c-0.5,0.01-1.14-0.49-1.91-1.49
		c-0.77-1-1.46-2.31-2.07-3.91c-0.61-1.6-0.92-3.27-0.94-5c-0.02-1.25,0.08-2.3,0.27-3.14c0.2-0.84,0.59-1.7,1.18-2.59
		C315.33,318.54,316.27,317.37,317.57,315.92z M334.04,311.32c-5.94,3.24-10.17,5.99-12.69,8.23s-3.76,4.53-3.73,6.88
		c0.01,0.85,0.15,1.55,0.41,2.09c0.26,0.54,0.61,0.81,1.04,0.81c0.25,0,0.7-0.2,1.34-0.57c2.4-1.68,4.58-3.86,6.55-6.53
		C328.93,319.54,331.29,315.91,334.04,311.32z"/>
	
		<linearGradient id="SVGID_7_" gradientUnits="userSpaceOnUse" x1="347.5752" y1="320.1559" x2="377.392" y2="320.1559" gradientTransform="matrix(0.9875 0.1579 -0.1579 0.9875 51.5482 -62.0405)">
		<stop  offset="0.751" style="stop-color:#F1942E"/>
		<stop  offset="0.9719" style="stop-color:#FFF21F"/>
	</linearGradient>
	<path class="st6" d="M358.07,322.66c-1.99,2.69-3.78,4.98-5.35,6.86c-1.58,1.88-2.86,3.29-3.85,4.22c-0.99,0.93-1.67,1.4-2.04,1.4
		c-0.6,0.01-1.28-0.54-2.04-1.65s-1.42-2.53-1.97-4.25c-0.55-1.72-0.84-3.48-0.86-5.26c-0.03-2.58,1.02-5.2,3.15-7.85
		c2.13-2.65,4.56-4.86,7.3-6.62c2.74-1.77,4.8-2.66,6.18-2.67c1.13-0.01,2.24,0.8,3.34,2.44c1.72-4.31,3.36-8.14,4.92-11.49
		c1.56-3.35,2.87-5.84,3.93-7.48c1.06-1.64,1.82-2.46,2.28-2.47c0.5-0.01,0.98,0.28,1.41,0.84c0.43,0.57,0.65,1.21,0.66,1.93
		c0.02,1.38-0.83,3.77-2.54,7.16c-1.71,3.39-3.39,6.69-5.06,9.91c-1.66,3.22-3.09,6.39-4.27,9.5c-1.18,3.12-1.76,6-1.72,8.63
		c0.03,2.4,0.71,3.59,2.05,3.57c0.81-0.01,1.81-0.55,3.02-1.61c1.21-1.07,2.92-2.85,5.15-5.36l0.04,2.92
		c-4.88,7.49-8.66,11.25-11.36,11.29c-1.08,0.01-1.86-0.46-2.35-1.41c-0.48-0.95-0.73-2.37-0.76-4.27
		C357.31,328.38,357.55,325.62,358.07,322.66z M360.5,312.88c-2.04,0.82-4.43,2.14-7.17,3.94c-2.74,1.8-4.39,3.04-4.96,3.71
		c-0.5,0.54-0.94,1.55-1.31,3.01c-0.37,1.47-0.56,2.58-0.55,3.32c0.01,0.45,0.13,0.82,0.36,1.11c0.23,0.29,0.52,0.43,0.87,0.43
		c0.32,0,0.69-0.17,1.1-0.49c0.41-0.32,1.06-0.96,1.96-1.9c0.9-0.94,1.48-1.55,1.76-1.82c0.39-0.4,1.24-1.28,2.58-2.61
		c1.33-1.33,2.3-2.38,2.91-3.13c0.61-0.75,1.13-1.59,1.56-2.52C360.03,315.02,360.33,314,360.5,312.88z"/>
	
		<linearGradient id="SVGID_8_" gradientUnits="userSpaceOnUse" x1="376.6212" y1="315.148" x2="406.438" y2="315.148" gradientTransform="matrix(0.9875 0.1579 -0.1579 0.9875 51.5482 -62.0405)">
		<stop  offset="0.751" style="stop-color:#F1942E"/>
		<stop  offset="0.9719" style="stop-color:#FFF21F"/>
	</linearGradient>
	<path class="st7" d="M387.54,322.3c-1.99,2.69-3.78,4.98-5.35,6.86c-1.58,1.88-2.86,3.29-3.85,4.22c-0.99,0.93-1.67,1.4-2.04,1.4
		c-0.6,0.01-1.28-0.54-2.04-1.65s-1.42-2.53-1.97-4.25c-0.55-1.72-0.84-3.48-0.86-5.26c-0.03-2.58,1.02-5.2,3.15-7.85
		c2.13-2.65,4.56-4.86,7.3-6.62c2.74-1.77,4.8-2.66,6.18-2.67c1.13-0.01,2.24,0.8,3.34,2.44c1.72-4.31,3.36-8.14,4.92-11.49
		c1.56-3.35,2.87-5.84,3.93-7.48s1.82-2.46,2.28-2.47c0.5-0.01,0.98,0.28,1.41,0.84c0.43,0.57,0.65,1.21,0.66,1.93
		c0.02,1.38-0.83,3.77-2.54,7.16c-1.71,3.39-3.39,6.69-5.06,9.91c-1.66,3.22-3.09,6.39-4.27,9.5c-1.18,3.12-1.76,5.99-1.72,8.63
		c0.03,2.4,0.71,3.59,2.05,3.57c0.81-0.01,1.81-0.55,3.02-1.61c1.21-1.07,2.92-2.85,5.15-5.36l0.04,2.92
		c-4.88,7.49-8.66,11.25-11.36,11.29c-1.08,0.01-1.86-0.46-2.35-1.41c-0.48-0.95-0.73-2.37-0.76-4.27
		C386.78,328.02,387.03,325.26,387.54,322.3z M389.98,312.52c-2.04,0.82-4.43,2.14-7.17,3.94c-2.74,1.8-4.39,3.04-4.96,3.71
		c-0.5,0.54-0.94,1.55-1.31,3.01c-0.37,1.47-0.56,2.58-0.55,3.32c0.01,0.45,0.13,0.82,0.36,1.11c0.23,0.29,0.52,0.43,0.87,0.43
		c0.32,0,0.69-0.17,1.1-0.49c0.41-0.32,1.06-0.96,1.96-1.9c0.9-0.94,1.48-1.55,1.76-1.82c0.39-0.4,1.24-1.28,2.58-2.61
		c1.33-1.33,2.3-2.38,2.91-3.13c0.61-0.75,1.13-1.59,1.56-2.52C389.51,314.66,389.81,313.64,389.98,312.52z"/>
	
		<linearGradient id="SVGID_9_" gradientUnits="userSpaceOnUse" x1="405.7796" y1="315.5442" x2="422.6976" y2="315.5442" gradientTransform="matrix(0.9875 0.1579 -0.1579 0.9875 51.5482 -62.0405)">
		<stop  offset="0.751" style="stop-color:#F1942E"/>
		<stop  offset="0.9719" style="stop-color:#FFF21F"/>
	</linearGradient>
	<path class="st8" d="M417.74,321.85l0.04,2.92c-2.19,3.36-4.24,5.89-6.16,7.61c-1.91,1.72-3.55,2.58-4.9,2.6
		c-1.89,0.02-3.3-1.1-4.25-3.38c-0.95-2.28-1.44-4.78-1.47-7.49c-0.01-1.04,0.07-2.03,0.24-2.98c0.17-0.95,0.38-1.73,0.63-2.35
		c0.25-0.61,0.71-1.58,1.38-2.89c3.2-5.93,6.15-8.91,8.87-8.94c1.4-0.02,2.11,0.6,2.13,1.85c0.01,0.85-0.43,2.19-1.32,4.01
		c-0.89,1.82-1.68,3.13-2.39,3.91c-1.97,2.26-3.26,3.84-3.86,4.72c-0.6,0.88-0.89,1.89-0.88,3.01c0.01,0.96,0.33,1.75,0.96,2.39
		s1.44,0.94,2.43,0.93c1.08-0.01,2.27-0.49,3.55-1.42C414.03,325.39,415.69,323.9,417.74,321.85z M415.17,304.02
		c-0.57,0.01-1.12-0.24-1.65-0.74c-0.53-0.5-0.79-1.14-0.8-1.91c-0.01-1.17,0.45-2.48,1.4-3.93c0.95-1.45,1.94-2.18,2.98-2.19
		c0.69-0.01,1.27,0.23,1.73,0.72c0.47,0.49,0.71,1.2,0.72,2.13c0.01,1.15-0.44,2.42-1.37,3.81
		C417.26,303.3,416.26,304.01,415.17,304.02z"/>
	
		<linearGradient id="SVGID_10_" gradientUnits="userSpaceOnUse" x1="421.6151" y1="318.1309" x2="442.8369" y2="318.1309" gradientTransform="matrix(0.9875 0.1579 -0.1579 0.9875 51.5482 -62.0405)">
		<stop  offset="0.751" style="stop-color:#F1942E"/>
		<stop  offset="0.9719" style="stop-color:#FFF21F"/>
	</linearGradient>
	<path class="st9" d="M438.2,321.68l0.03,2.68c-2.43,2.83-4.41,5.02-5.94,6.58c-1.53,1.56-2.97,2.78-4.3,3.65
		c-1.34,0.87-2.65,1.31-3.94,1.33c-1.27,0.02-2.44-0.55-3.51-1.7c-1.07-1.15-1.92-2.66-2.54-4.52c-0.62-1.87-0.94-3.86-0.97-5.96
		c-0.02-1.81,0.3-3.43,0.97-4.85c0.67-1.42,1.99-3.26,3.94-5.52c2.31-2.69,4.47-4.78,6.46-6.25c2-1.48,3.57-2.22,4.72-2.24
		c0.83-0.01,1.54,0.32,2.12,0.97c0.58,0.66,0.88,1.49,0.9,2.51c0.01,0.85-0.36,2.07-1.1,3.65c-0.74,1.58-1.57,2.95-2.5,4.13
		c-0.93,1.17-1.67,1.76-2.22,1.77c-0.6,0.01-0.9-0.36-0.91-1.11c0.02-0.21,0.03-0.41,0.04-0.6c0.01-0.19,0.01-0.37,0.01-0.56
		c0-0.32-0.1-0.5-0.3-0.53s-0.43,0.07-0.7,0.31c-2.28,1.89-3.84,3.22-4.68,3.99c-0.84,0.77-1.5,1.54-1.99,2.32
		c-0.49,0.78-0.72,1.59-0.71,2.45c0.02,1.57,0.47,2.85,1.36,3.82c0.89,0.98,2.03,1.45,3.43,1.44c1.45-0.02,3.19-0.68,5.21-2
		C433.1,326.1,435.47,324.19,438.2,321.68z"/>
	
		<linearGradient id="SVGID_11_" gradientUnits="userSpaceOnUse" x1="441.9476" y1="309.1418" x2="460.4917" y2="309.1418" gradientTransform="matrix(0.9875 0.1579 -0.1579 0.9875 51.5482 -62.0405)">
		<stop  offset="0.751" style="stop-color:#F1942E"/>
		<stop  offset="0.9719" style="stop-color:#FFF21F"/>
	</linearGradient>
	<path class="st10" d="M449.93,300.72l1.48-0.02c1.19-2.54,2.27-4.35,3.25-5.41s2.1-1.61,3.36-1.62c1.27-0.02,1.9,0.31,1.91,0.98
		c0,0.32-0.48,1.19-1.45,2.62c-0.97,1.42-1.71,2.62-2.2,3.58c0.78,0.1,1.48,0.18,2.09,0.25c0.61,0.07,1.09,0.13,1.43,0.18
		c-1.28,2.84-2.89,5.75-4.83,8.73c-0.65-0.05-1.19-0.09-1.62-0.12s-0.88-0.07-1.33-0.1c-0.45-0.03-1-0.07-1.64-0.12
		c-1.21,2.33-2.23,4.42-3.05,6.25c-0.82,1.83-1.44,3.51-1.87,5.04c-0.43,1.52-0.64,2.96-0.62,4.32c0.02,1.84,0.66,2.75,1.93,2.73
		c0.87-0.01,2.01-0.56,3.41-1.66c1.4-1.1,3.27-2.78,5.62-5.04l0.03,2.68c-6.12,7.88-10.66,11.84-13.63,11.87
		c-1.04,0.01-1.87-0.44-2.52-1.37c-0.64-0.92-0.98-2.12-0.99-3.58c-0.01-0.98,0.15-2.16,0.49-3.52c0.34-1.36,0.95-3.42,1.84-6.17
		c-0.32,0.32-0.62,0.64-0.9,0.95c-0.28,0.31-0.54,0.59-0.78,0.85c-0.24,0.26-0.49,0.52-0.77,0.81c-0.27,0.28-0.55,0.57-0.82,0.87
		l-0.03-2.76c2.39-2.37,5.26-6.52,8.62-12.45c-0.35-0.02-0.67-0.04-0.97-0.05c-0.3-0.01-0.65-0.01-1.07-0.01
		c-1.36,0.02-2.37,0.14-3.03,0.36c-0.27,0.08-0.53,0.17-0.77,0.27c-0.24,0.1-0.41,0.15-0.5,0.15c-0.09,0-0.14-0.08-0.14-0.24
		c-0.01-0.88,0.44-2.2,1.37-3.97c0.74-1.5,1.45-2.62,2.12-3.34c0.67-0.73,1.49-1.22,2.47-1.49
		C446.78,300.88,448.16,300.74,449.93,300.72z"/>
	
		<linearGradient id="SVGID_12_" gradientUnits="userSpaceOnUse" x1="459.4845" y1="306.2849" x2="476.4025" y2="306.2849" gradientTransform="matrix(0.9875 0.1579 -0.1579 0.9875 51.5482 -62.0405)">
		<stop  offset="0.751" style="stop-color:#F1942E"/>
		<stop  offset="0.9719" style="stop-color:#FFF21F"/>
	</linearGradient>
	<path class="st11" d="M472.23,321.18l0.04,2.92c-2.19,3.36-4.24,5.89-6.16,7.61c-1.91,1.72-3.55,2.58-4.9,2.6
		c-1.89,0.02-3.3-1.1-4.25-3.38c-0.95-2.28-1.44-4.78-1.47-7.49c-0.01-1.04,0.07-2.03,0.24-2.98c0.17-0.95,0.38-1.73,0.63-2.35
		c0.25-0.61,0.71-1.58,1.38-2.89c3.2-5.93,6.15-8.91,8.87-8.94c1.4-0.02,2.11,0.6,2.13,1.85c0.01,0.85-0.43,2.19-1.32,4.01
		c-0.89,1.82-1.68,3.13-2.39,3.91c-1.97,2.26-3.26,3.84-3.86,4.72c-0.6,0.88-0.89,1.89-0.88,3.01c0.01,0.96,0.33,1.75,0.96,2.39
		c0.63,0.63,1.44,0.94,2.43,0.93c1.08-0.01,2.27-0.49,3.55-1.42C468.52,324.72,470.19,323.23,472.23,321.18z M469.67,303.35
		c-0.57,0.01-1.12-0.24-1.65-0.74c-0.53-0.5-0.79-1.14-0.8-1.91c-0.01-1.17,0.45-2.48,1.4-3.93c0.95-1.45,1.94-2.18,2.98-2.19
		c0.69-0.01,1.27,0.23,1.73,0.72s0.71,1.2,0.72,2.13c0.01,1.15-0.44,2.42-1.37,3.81C471.75,302.64,470.75,303.34,469.67,303.35z"/>
	
		<linearGradient id="SVGID_13_" gradientUnits="userSpaceOnUse" x1="475.3489" y1="308.4635" x2="497.9111" y2="308.4635" gradientTransform="matrix(0.9875 0.1579 -0.1579 0.9875 51.5482 -62.0405)">
		<stop  offset="0.751" style="stop-color:#F1942E"/>
		<stop  offset="0.9719" style="stop-color:#FFF21F"/>
	</linearGradient>
	<path class="st12" d="M494.11,320.83l0.03,2.68c-1.5,1.62-2.71,2.69-3.62,3.24c-0.92,0.55-2.24,0.78-3.96,0.69
		c-2.94,4.14-5.55,6.22-7.83,6.25c-1.29,0.02-2.47-0.46-3.54-1.44c-1.07-0.97-1.93-2.31-2.59-4c-0.65-1.7-0.99-3.6-1.02-5.7
		c-0.02-1.7,0.45-3.6,1.4-5.69c0.95-2.09,2.2-4.04,3.73-5.86c1.53-1.82,3.17-3.29,4.93-4.42c1.76-1.13,3.4-1.7,4.92-1.72
		c1.08-0.01,1.94,0.17,2.56,0.55c0.62,0.38,0.94,0.91,0.95,1.61c0.01,0.53-0.25,1.15-0.77,1.85c0.88,0.2,1.48,0.55,1.81,1.04
		c0.33,0.49,0.5,1.38,0.52,2.69c0.02,1.28-0.23,2.89-0.72,4.84s-1.18,3.78-2.06,5.5l0.63,0.71l0.52-0.01c0.39,0,0.78-0.12,1.15-0.35
		c0.38-0.23,0.71-0.47,1.01-0.73C492.46,322.3,493.11,321.73,494.11,320.83z M486.87,310.41c-1.89,1.36-3.51,2.58-4.86,3.68
		c-1.34,1.1-2.48,2.2-3.41,3.32c-0.93,1.12-1.55,2.23-1.86,3.36c-0.54,2.99-0.81,4.61-0.8,4.84c0.02,1.76,1.09,2.63,3.21,2.6
		c0.99-0.01,2.63-1.02,4.93-3.02c-0.41-1.25-0.62-2.44-0.63-3.59c-0.02-1.68,0.26-3.39,0.83-5.14
		C484.87,314.71,485.73,312.69,486.87,310.41z"/>
	
		<linearGradient id="SVGID_14_" gradientUnits="userSpaceOnUse" x1="497.2244" y1="304.1718" x2="523.4886" y2="304.1718" gradientTransform="matrix(0.9875 0.1579 -0.1579 0.9875 51.5482 -62.0405)">
		<stop  offset="0.751" style="stop-color:#F1942E"/>
		<stop  offset="0.9719" style="stop-color:#FFF21F"/>
	</linearGradient>
	<path class="st13" d="M517.22,313.4c-3.99,5.27-5.97,8.93-5.94,10.98c0.01,1.15,0.42,1.71,1.23,1.7c0.67-0.01,1.53-0.42,2.59-1.25
		c1.06-0.82,2.71-2.29,4.97-4.4l0.03,2.76c-3.22,3.77-5.7,6.49-7.42,8.16c-1.73,1.68-3.15,2.52-4.25,2.53
		c-1.89,0.02-2.85-1.4-2.88-4.28c-0.01-0.85,0.1-1.69,0.31-2.52c0.22-0.83,0.53-1.69,0.92-2.59c0.39-0.9,0.99-2.18,1.8-3.86
		c0.81-1.67,1.74-3.57,2.8-5.69c-1.3,0.79-2.93,2.34-4.88,4.65c-1.27,1.45-2.35,2.83-3.23,4.14c-0.88,1.3-1.83,2.75-2.83,4.35
		c-1,1.6-1.74,2.67-2.2,3.22c-0.47,0.55-0.94,0.83-1.42,0.84c-0.74,0.01-1.43-0.87-2.07-2.65c-0.64-1.78-0.98-3.85-1.01-6.22
		c-0.02-1.46,0.11-2.61,0.39-3.44s0.83-2.01,1.66-3.54c1.55-2.84,2.9-4.93,4.03-6.26c1.13-1.33,2.23-2,3.29-2.02
		c0.74-0.01,1.33,0.13,1.78,0.42c0.45,0.29,0.68,0.74,0.69,1.35c0,0.27-0.06,0.55-0.2,0.84c-0.13,0.3-0.29,0.56-0.46,0.81
		c-0.17,0.24-0.53,0.71-1.07,1.41c-3.58,4.71-5.36,7.75-5.34,9.13c0.01,0.77,0.23,1.16,0.67,1.15c0.28,0,0.81-0.52,1.59-1.56
		c0.78-1.03,1.79-2.39,3.02-4.07c1.23-1.68,2.69-3.43,4.39-5.27c1.69-1.83,3.62-3.6,5.79-5.3c1.21-1,2.21-1.5,3.02-1.51
		c0.37,0,0.74,0.58,1.11,1.74c0.37,1.17,0.56,2.35,0.58,3.55C518.68,311.29,518.19,312.19,517.22,313.4z"/>
</g>
</svg>
