<?xml version="1.0" encoding="utf-8"?>
<!-- Generator: Adobe Illustrator 23.0.1, SVG Export Plug-In . SVG Version: 6.00 Build 0)  -->
<svg version="1.1" id="圖層_1" xmlns="http://www.w3.org/2000/svg" xmlns:xlink="http://www.w3.org/1999/xlink" x="0px" y="0px"
	 viewBox="0 0 841.89 595.28" style="enable-background:new 0 0 841.89 595.28;" xml:space="preserve">
<style type="text/css">
	.st0{fill:none;stroke:url(#SVGID_1_);stroke-width:5;stroke-miterlimit:10;}
	.st1{fill-rule:evenodd;clip-rule:evenodd;fill:#040000;stroke:url(#SVGID_2_);stroke-miterlimit:10;}
	.st2{fill:url(#SVGID_3_);}
	.st3{fill:url(#SVGID_4_);}
	.st4{fill:url(#SVGID_5_);}
	.st5{fill:url(#SVGID_6_);}
	.st6{fill:url(#SVGID_7_);}
	.st7{fill:url(#SVGID_8_);}
	.st8{fill:url(#SVGID_9_);}
	.st9{fill:url(#SVGID_10_);}
	.st10{fill:url(#SVGID_11_);}
	.st11{fill:url(#SVGID_12_);}
	.st12{fill:url(#SVGID_13_);}
	.st13{fill:url(#SVGID_14_);}
	.st14{fill:url(#SVGID_15_);}
	.st15{fill:url(#SVGID_16_);}
</style>
<g>
	<g>
		<linearGradient id="SVGID_1_" gradientUnits="userSpaceOnUse" x1="296.8692" y1="249.0531" x2="425.8411" y2="249.0531">
			<stop  offset="0" style="stop-color:#914C99"/>
			<stop  offset="0.0309" style="stop-color:#9E5693"/>
			<stop  offset="0.0943" style="stop-color:#B56783"/>
			<stop  offset="0.1594" style="stop-color:#C77570"/>
			<stop  offset="0.2251" style="stop-color:#D7805E"/>
			<stop  offset="0.2916" style="stop-color:#E2894C"/>
			<stop  offset="0.3591" style="stop-color:#EA8F3D"/>
			<stop  offset="0.4284" style="stop-color:#EF9332"/>
			<stop  offset="0.5022" style="stop-color:#F1942E"/>
			<stop  offset="0.9719" style="stop-color:#FFF21F"/>
		</linearGradient>
		<path class="st0" d="M423.34,342.2c0,0,1.18,15.91-71.35,19.49c-13.83-1.54-18.25-6.87-16.26-17.22
			c1.81-9.38,8.46-19.86-7.64-26.01c9.15-8.33-9.52-11.63-6.07-16.18c11.58-15.29-1.56-18.99-14.76-24.27
			c-8.93-3.57-11.27-8.88-1.81-15c5.25-3.4,9.32-7.94,13.86-12.02c11.78-10.58,20.67-20.93,16.91-37.13
			c-5.37-23.12,8.13-41.87,29.87-57c0,0,29.82-24.49,57.26-19.86"/>
	</g>
	<linearGradient id="SVGID_2_" gradientUnits="userSpaceOnUse" x1="350.961" y1="220.2773" x2="532.1894" y2="220.2773">
		<stop  offset="0" style="stop-color:#914C99"/>
		<stop  offset="0.0309" style="stop-color:#9E5693"/>
		<stop  offset="0.0943" style="stop-color:#B56783"/>
		<stop  offset="0.1594" style="stop-color:#C77570"/>
		<stop  offset="0.2251" style="stop-color:#D7805E"/>
		<stop  offset="0.2916" style="stop-color:#E2894C"/>
		<stop  offset="0.3591" style="stop-color:#EA8F3D"/>
		<stop  offset="0.4284" style="stop-color:#EF9332"/>
		<stop  offset="0.5022" style="stop-color:#F1942E"/>
		<stop  offset="0.9719" style="stop-color:#FFF21F"/>
	</linearGradient>
	<path class="st1" d="M442.23,233.75c-5.22-0.03-9.43-4.3-9.4-9.52c0.03-5.22,4.3-9.43,9.52-9.4c5.22,0.03,9.43,4.3,9.4,9.52
		C451.71,229.57,447.45,233.78,442.23,233.75z M441.91,282.93c-9.42-0.06-16.98-7.71-16.92-17.13c0.06-9.42,7.71-16.98,17.13-16.92
		c9.42,0.06,16.98,7.71,16.92,17.13C458.99,275.44,451.33,282.99,441.91,282.93z M442.44,199.7c-9.42-0.06-16.98-7.71-16.92-17.13
		c0.06-9.42,7.71-16.98,17.13-16.92c9.42,0.06,16.98,7.71,16.92,17.13C459.52,192.2,451.86,199.76,442.44,199.7z M483.79,241.58
		c-9.42-0.06-16.98-7.71-16.92-17.13c0.06-9.42,7.71-16.98,17.14-16.92c9.42,0.06,16.98,7.71,16.92,17.13
		C500.87,234.08,493.22,241.64,483.79,241.58z M400.56,241.05c-9.42-0.06-16.98-7.71-16.92-17.13c0.06-9.42,7.71-16.98,17.13-16.92
		c9.42,0.06,16.98,7.71,16.92,17.13C417.63,233.55,409.98,241.11,400.56,241.05z M466.17,128.18 M531.69,221.76
		c0,49.77-40.35,90.11-90.11,90.11s-90.11-40.35-90.11-90.11s40.35-90.11,90.11-90.11S531.69,171.99,531.69,221.76z"/>
	<g>
		
			<linearGradient id="SVGID_3_" gradientUnits="userSpaceOnUse" x1="384.6581" y1="352.6881" x2="423.9353" y2="352.6881" gradientTransform="matrix(0.9998 0.0205 -0.0205 0.9998 7.573 -8.9175)">
			<stop  offset="0.751" style="stop-color:#F1942E"/>
			<stop  offset="0.9719" style="stop-color:#FFF21F"/>
		</linearGradient>
		<path class="st2" d="M401.54,358.92c2.58-3.74,4.78-6.99,6.62-9.75c1.83-2.76,3.28-4.94,4.32-6.52c1.05-1.58,1.98-2.94,2.79-4.05
			c0.81-1.11,1.35-1.69,1.62-1.74c0.52-0.12,1.12,0.42,1.82,1.61c0.7,1.19,1.11,2.16,1.24,2.93c0.09,0.5-0.43,1.8-1.55,3.9
			c-1.12,2.1-1.94,3.76-2.47,4.99c-0.53,1.23-0.68,2.44-0.47,3.65c0.12,0.71,0.42,1.24,0.91,1.61c0.48,0.36,1.01,0.5,1.57,0.4
			c0.66-0.11,1.38-0.64,2.16-1.59c0.78-0.94,1.99-2.6,3.61-4.96l0.48,2.8c-1.6,2.49-3.07,4.66-4.41,6.5
			c-1.34,1.84-2.54,3.25-3.6,4.23c-1.06,0.98-1.98,1.54-2.78,1.68c-0.7,0.12-1.34-0.09-1.93-0.62c-0.58-0.53-0.95-1.26-1.11-2.18
			c-0.15-0.89-0.18-1.82-0.06-2.79c0.11-0.97,0.35-2.13,0.7-3.49c0.35-1.36,0.84-3,1.46-4.93c0.62-1.93,1.19-3.7,1.71-5.3
			c-1.94,2.58-3.63,5.03-5.07,7.36c-1.44,2.33-2.6,4.35-3.48,6.05c-0.87,1.7-1.56,3.05-2.07,4.03c-0.99,1.85-2.03,2.86-3.12,3.05
			c-1.18,0.2-1.94-0.67-2.27-2.61c-0.14-0.79,0.06-2.27,0.6-4.46c0.53-2.19,1.35-4.99,2.43-8.43c0.1-0.23,0.11-0.57,0.03-1.02
			c-0.09-0.52-0.36-0.75-0.81-0.67c-0.5,0.09-1.13,0.75-1.88,2.01c-0.75,1.25-2.18,3.84-4.28,7.77c-0.58,1.1-1.21,2.51-1.88,4.23
			c-0.67,1.72-1.17,2.88-1.48,3.48c-0.32,0.6-0.68,0.93-1.09,1c-0.82,0.14-1.72-0.57-2.72-2.13c-0.99-1.56-1.68-3.45-2.06-5.68
			c-0.28-1.62-0.29-3.07-0.03-4.33c0.26-1.26,0.73-2.86,1.4-4.78c1.08-2.81,2.01-4.84,2.79-6.09c0.77-1.25,1.7-1.97,2.76-2.16
			c0.66-0.11,1.24-0.06,1.74,0.17c0.5,0.22,0.8,0.6,0.89,1.12c0.1,0.55-0.16,1.53-0.77,2.93c-0.61,1.4-1.43,2.88-2.48,4.44
			c-0.55,0.88-1.03,1.93-1.45,3.15c-0.42,1.22-0.59,2.08-0.5,2.58c0.12,0.71,0.42,1.02,0.9,0.94c0.38-0.07,1.2-1.15,2.45-3.26
			c1.25-2.11,2.62-4.4,4.12-6.89c1.5-2.49,2.92-4.59,4.27-6.29c1.35-1.71,2.58-2.66,3.69-2.85c0.68-0.12,1.29,0.08,1.84,0.59
			c0.54,0.52,0.89,1.21,1.04,2.07c0.1,0.58-0.06,1.68-0.48,3.31s-1.09,3.66-2.01,6.1C404.28,352.44,403.06,355.42,401.54,358.92z"/>
		
			<linearGradient id="SVGID_4_" gradientUnits="userSpaceOnUse" x1="422.9321" y1="346.0819" x2="445.4734" y2="346.0819" gradientTransform="matrix(0.9998 0.0205 -0.0205 0.9998 7.573 -8.9175)">
			<stop  offset="0.751" style="stop-color:#F1942E"/>
			<stop  offset="0.9719" style="stop-color:#FFF21F"/>
		</linearGradient>
		<path class="st3" d="M445.36,345.73l0.46,2.64c-1.23,1.83-2.25,3.09-3.06,3.77c-0.82,0.68-2.08,1.12-3.8,1.31
			c-2.25,4.55-4.5,7.02-6.74,7.41c-1.27,0.22-2.51-0.07-3.72-0.86c-1.21-0.79-2.27-1.97-3.19-3.54c-0.91-1.57-1.55-3.39-1.91-5.47
			c-0.29-1.68-0.13-3.63,0.48-5.84c0.61-2.21,1.53-4.34,2.76-6.37c1.23-2.04,2.62-3.75,4.17-5.14c1.56-1.39,3.09-2.21,4.58-2.47
			c1.07-0.18,1.94-0.14,2.62,0.14c0.68,0.27,1.07,0.75,1.19,1.44c0.09,0.52-0.07,1.17-0.47,1.95c0.9,0.06,1.55,0.31,1.95,0.74
			c0.4,0.43,0.71,1.29,0.94,2.57c0.22,1.26,0.23,2.89,0.05,4.9c-0.18,2-0.57,3.92-1.16,5.75l0.73,0.6l0.51-0.09
			c0.39-0.07,0.75-0.24,1.08-0.53c0.33-0.29,0.63-0.58,0.88-0.88C443.96,347.44,444.51,346.77,445.36,345.73z M436.56,336.58
			c-1.65,1.64-3.06,3.1-4.22,4.4c-1.15,1.29-2.1,2.57-2.84,3.82c-0.74,1.25-1.18,2.45-1.3,3.61c-0.06,3.04-0.07,4.67-0.03,4.91
			c0.3,1.73,1.49,2.42,3.58,2.06c0.97-0.17,2.44-1.42,4.4-3.76c-0.6-1.17-0.99-2.31-1.19-3.44c-0.28-1.65-0.28-3.39,0.01-5.21
			C435.26,341.14,435.79,339.01,436.56,336.58z"/>
		
			<linearGradient id="SVGID_5_" gradientUnits="userSpaceOnUse" x1="444.6577" y1="342.7669" x2="467.917" y2="342.7669" gradientTransform="matrix(0.9998 0.0205 -0.0205 0.9998 7.573 -8.9175)">
			<stop  offset="0.751" style="stop-color:#F1942E"/>
			<stop  offset="0.9719" style="stop-color:#FFF21F"/>
		</linearGradient>
		<path class="st4" d="M449.77,345.13l-0.04,3.41c-0.02,0.44,0.02,0.92,0.11,1.44c0.24,1.42,0.88,2.04,1.9,1.86
			c0.97-0.17,2.96-2.78,5.97-7.84c-0.27-1.71-0.06-3.77,0.63-6.19c0.69-2.41,1.55-4.58,2.56-6.48c1.01-1.9,1.84-2.91,2.47-3.02
			c1-0.17,1.63,0.5,1.89,2.02c0.16,0.92,0.16,2.07,0,3.47c-0.16,1.39-0.48,2.92-0.96,4.59c-0.49,1.66-1.13,3.4-1.94,5.22
			c0.77,1.08,1.45,1.57,2.04,1.47c0.5-0.09,1.01-0.38,1.55-0.89c0.53-0.51,1.18-1.27,1.94-2.26l0.45,2.64
			c-1.07,1.38-1.94,2.34-2.6,2.88c-0.66,0.55-1.57,0.92-2.73,1.12c-0.45,0.08-1.33-0.14-2.63-0.64c-1.82,3.23-3.34,5.68-4.55,7.33
			c-1.21,1.66-2.27,2.56-3.17,2.72c-1.57,0.27-3.08-0.58-4.56-2.56c-1.47-1.98-2.43-4.26-2.88-6.86c-0.6-3.49,0.38-7.97,2.94-13.44
			c0.77-1.64,1.42-2.79,1.95-3.44c0.53-0.65,1.19-1.04,1.98-1.17c0.68-0.12,1.35-0.08,2.01,0.1s1.03,0.47,1.1,0.87
			c0.23,1.31-0.2,3.37-1.29,6.16C452.82,340.42,451.44,342.93,449.77,345.13z"/>
		
			<linearGradient id="SVGID_6_" gradientUnits="userSpaceOnUse" x1="467.1642" y1="332.6305" x2="484.0958" y2="332.6305" gradientTransform="matrix(0.9998 0.0205 -0.0205 0.9998 7.573 -8.9175)">
			<stop  offset="0.751" style="stop-color:#F1942E"/>
			<stop  offset="0.9719" style="stop-color:#FFF21F"/>
		</linearGradient>
		<path class="st5" d="M484.08,339.14l0.5,2.88c-1.64,3.66-3.26,6.49-4.88,8.48c-1.62,2-3.09,3.11-4.43,3.34
			c-1.86,0.32-3.44-0.57-4.73-2.67c-1.3-2.1-2.18-4.49-2.64-7.17c-0.18-1.02-0.25-2.02-0.23-2.98c0.02-0.96,0.1-1.77,0.25-2.42
			c0.15-0.64,0.45-1.67,0.91-3.07c2.22-6.36,4.67-9.77,7.34-10.23c1.38-0.24,2.18,0.26,2.39,1.49c0.14,0.84-0.08,2.23-0.67,4.17
			c-0.59,1.94-1.17,3.35-1.74,4.23c-1.59,2.55-2.62,4.3-3.07,5.27c-0.45,0.97-0.58,2-0.39,3.11c0.16,0.94,0.6,1.68,1.33,2.2
			c0.72,0.52,1.57,0.7,2.54,0.53c1.07-0.18,2.16-0.84,3.29-1.96C480.97,343.22,482.38,341.48,484.08,339.14z M478.73,321.94
			c-0.57,0.1-1.15-0.06-1.74-0.47c-0.6-0.41-0.96-1-1.09-1.76c-0.2-1.15,0.06-2.52,0.76-4.11c0.71-1.58,1.57-2.46,2.59-2.64
			c0.68-0.12,1.29,0.03,1.83,0.44c0.54,0.41,0.89,1.07,1.04,1.99c0.19,1.13-0.06,2.46-0.75,3.98
			C480.68,320.9,479.79,321.75,478.73,321.94z"/>
		
			<linearGradient id="SVGID_7_" gradientUnits="userSpaceOnUse" x1="483.2493" y1="334.5876" x2="503.9613" y2="334.5876" gradientTransform="matrix(0.9998 0.0205 -0.0205 0.9998 7.573 -8.9175)">
			<stop  offset="0.751" style="stop-color:#F1942E"/>
			<stop  offset="0.9719" style="stop-color:#FFF21F"/>
		</linearGradient>
		<path class="st6" d="M489.46,339.67l0.17,0.98c0.27,1.55,0.8,2.7,1.61,3.45c0.81,0.75,1.74,1.04,2.81,0.85
			c1.11-0.19,2.21-0.69,3.29-1.5c1.09-0.81,2.13-1.81,3.14-3.01c1.01-1.2,2.22-2.79,3.63-4.76l0.41,2.4
			c-1.95,4.01-3.88,7.16-5.8,9.45s-4.03,3.64-6.34,4.03c-2.02,0.35-3.77-0.28-5.26-1.89c-1.49-1.61-2.51-3.99-3.05-7.14
			c-0.48-2.76-0.35-5.35,0.37-7.79c0.73-2.43,2.13-5.12,4.22-8.04c1.43-2,2.92-3.58,4.47-4.74c1.55-1.16,2.99-1.85,4.33-2.08
			c1.07-0.18,1.96-0.05,2.68,0.41c0.72,0.46,1.18,1.25,1.37,2.38c0.29,1.65,0.04,3.39-0.75,5.22c-0.78,1.82-2.13,3.73-4.04,5.72
			C494.82,335.6,492.4,337.62,489.46,339.67z M489.36,337.05c1.88-1.27,3.43-2.71,4.65-4.33c1.21-1.61,2.06-3.11,2.54-4.47
			c0.48-1.37,0.67-2.34,0.57-2.92c-0.1-0.6-0.39-0.87-0.87-0.78c-0.41,0.07-1.02,0.49-1.83,1.25s-1.61,1.71-2.38,2.84
			c-0.77,1.13-1.42,2.42-1.94,3.86C489.56,333.95,489.31,335.46,489.36,337.05z"/>
		
			<linearGradient id="SVGID_8_" gradientUnits="userSpaceOnUse" x1="347.2336" y1="404.6279" x2="376.4288" y2="404.6279" gradientTransform="matrix(0.9998 0.0205 -0.0205 0.9998 7.573 -8.9175)">
			<stop  offset="0.751" style="stop-color:#F1942E"/>
			<stop  offset="0.9719" style="stop-color:#FFF21F"/>
		</linearGradient>
		<path class="st7" d="M349.35,400.23c2.82-4.21,5.7-7.48,8.64-9.8s5.29-3.63,7.06-3.93c0.48-0.08,0.96,0.07,1.44,0.46
			c0.49,0.39,0.9,0.86,1.24,1.43c0.34,0.56,0.54,0.99,0.59,1.28c0.08,0.47-0.02,0.85-0.3,1.13c-0.28,0.28-0.79,0.64-1.53,1.1
			c0.23,0.39,0.53,0.9,0.89,1.51c0.36,0.61,0.65,1.11,0.85,1.49c0.21,0.38,0.34,0.73,0.39,1.05c0.11,0.63-0.24,1.9-1.04,3.81
			c-0.8,1.91-1.36,3.31-1.66,4.2c-0.3,0.89-0.35,1.93-0.15,3.11c0.33,1.94,1.27,2.78,2.81,2.52c1.59-0.27,3.77-2.42,6.56-6.44
			l0.41,2.4c-4.47,8.36-7.93,12.76-10.4,13.19c-0.89,0.15-1.57-0.07-2.06-0.68c-0.49-0.6-0.85-1.56-1.07-2.88
			c-0.36-2.07-0.23-5.19,0.38-9.35c-2.58,4.82-4.52,8.27-5.82,10.35c-1.3,2.08-2.47,3.2-3.52,3.38c-0.5,0.09-1.21-0.31-2.13-1.17
			c-0.92-0.87-1.81-2.05-2.66-3.54c-0.85-1.49-1.42-3.09-1.72-4.79c-0.21-1.23-0.29-2.28-0.23-3.14c0.06-0.86,0.31-1.78,0.75-2.74
			C347.56,403.17,348.3,401.87,349.35,400.23z M364.89,393.09c-5.36,4.14-9.1,7.52-11.23,10.13c-2.13,2.61-2.99,5.07-2.6,7.38
			c0.15,0.84,0.39,1.51,0.73,2c0.34,0.5,0.73,0.71,1.16,0.63c0.25-0.04,0.66-0.3,1.23-0.78c2.1-2.04,3.91-4.53,5.43-7.49
			S362.9,398.05,364.89,393.09z"/>
		
			<linearGradient id="SVGID_9_" gradientUnits="userSpaceOnUse" x1="375.3631" y1="390.1377" x2="405.1394" y2="390.1377" gradientTransform="matrix(0.9998 0.0205 -0.0205 0.9998 7.573 -8.9175)">
			<stop  offset="0.751" style="stop-color:#F1942E"/>
			<stop  offset="0.9719" style="stop-color:#FFF21F"/>
		</linearGradient>
		<path class="st8" d="M390.41,400.49c-1.54,2.97-2.94,5.51-4.2,7.62c-1.26,2.11-2.3,3.7-3.13,4.78c-0.83,1.08-1.43,1.64-1.79,1.71
			c-0.59,0.1-1.35-0.33-2.28-1.31c-0.93-0.98-1.8-2.27-2.61-3.89c-0.82-1.61-1.38-3.3-1.68-5.06c-0.44-2.55,0.18-5.3,1.87-8.25
			c1.69-2.95,3.74-5.51,6.17-7.69c2.43-2.18,4.32-3.38,5.68-3.62c1.11-0.19,2.34,0.43,3.69,1.88c1.02-4.53,2.03-8.57,3.04-12.12
			c1.01-3.55,1.91-6.22,2.7-8.01c0.79-1.79,1.41-2.72,1.87-2.79c0.5-0.09,1.01,0.12,1.52,0.61c0.52,0.49,0.84,1.09,0.96,1.8
			c0.24,1.36-0.22,3.86-1.37,7.47c-1.15,3.62-2.29,7.14-3.43,10.58c-1.13,3.44-2.04,6.79-2.72,10.06c-0.67,3.27-0.79,6.2-0.34,8.8
			c0.41,2.36,1.27,3.43,2.58,3.2c0.79-0.14,1.7-0.82,2.73-2.07c1.02-1.24,2.43-3.28,4.24-6.1l0.5,2.88
			c-3.64,8.17-6.78,12.48-9.43,12.94c-1.07,0.18-1.91-0.16-2.54-1.02c-0.63-0.86-1.1-2.23-1.42-4.09
			C390.56,406.26,390.36,403.49,390.41,400.49z M391.27,390.45c-1.88,1.13-4.03,2.81-6.45,5.02c-2.42,2.21-3.86,3.7-4.31,4.45
			c-0.41,0.61-0.68,1.67-0.82,3.18c-0.14,1.51-0.14,2.63-0.01,3.37c0.08,0.45,0.26,0.79,0.53,1.04c0.28,0.25,0.58,0.35,0.92,0.29
			c0.32-0.05,0.65-0.28,1.01-0.66c0.35-0.38,0.9-1.11,1.64-2.19c0.74-1.07,1.22-1.76,1.45-2.07c0.32-0.46,1.03-1.46,2.13-2.98
			c1.1-1.53,1.9-2.71,2.38-3.55c0.49-0.84,0.87-1.75,1.14-2.73C391.14,392.64,391.27,391.58,391.27,390.45z"/>
		
			<linearGradient id="SVGID_10_" gradientUnits="userSpaceOnUse" x1="404.3003" y1="384.5354" x2="434.0766" y2="384.5354" gradientTransform="matrix(0.9998 0.0205 -0.0205 0.9998 7.573 -8.9175)">
			<stop  offset="0.751" style="stop-color:#F1942E"/>
			<stop  offset="0.9719" style="stop-color:#FFF21F"/>
		</linearGradient>
		<path class="st9" d="M419.45,395.48c-1.54,2.97-2.94,5.51-4.2,7.62c-1.26,2.11-2.3,3.7-3.13,4.78c-0.83,1.08-1.43,1.64-1.79,1.71
			c-0.59,0.1-1.35-0.33-2.28-1.31c-0.93-0.98-1.8-2.27-2.61-3.89c-0.82-1.61-1.38-3.3-1.68-5.06c-0.44-2.55,0.18-5.3,1.87-8.25
			c1.69-2.95,3.74-5.51,6.17-7.69c2.43-2.18,4.32-3.38,5.68-3.62c1.11-0.19,2.34,0.43,3.69,1.88c1.02-4.53,2.03-8.57,3.04-12.12
			c1.01-3.55,1.91-6.22,2.7-8.01c0.79-1.79,1.41-2.72,1.87-2.79c0.5-0.09,1.01,0.12,1.52,0.61c0.52,0.49,0.84,1.09,0.96,1.8
			c0.24,1.36-0.22,3.86-1.37,7.47c-1.15,3.62-2.29,7.14-3.43,10.58c-1.13,3.44-2.04,6.79-2.72,10.06c-0.67,3.27-0.79,6.2-0.34,8.8
			c0.41,2.36,1.27,3.43,2.58,3.2c0.79-0.14,1.7-0.82,2.73-2.07c1.02-1.24,2.43-3.28,4.24-6.1l0.5,2.88
			c-3.64,8.17-6.78,12.48-9.43,12.94c-1.07,0.18-1.91-0.16-2.54-1.02c-0.63-0.86-1.1-2.23-1.42-4.09
			C419.61,401.25,419.41,398.48,419.45,395.48z M420.31,385.44c-1.88,1.13-4.03,2.81-6.45,5.02c-2.42,2.21-3.86,3.7-4.31,4.45
			c-0.41,0.61-0.68,1.67-0.82,3.18c-0.14,1.51-0.14,2.63-0.01,3.37c0.08,0.45,0.26,0.79,0.53,1.04c0.28,0.25,0.58,0.35,0.92,0.29
			c0.32-0.05,0.65-0.28,1.01-0.66c0.35-0.38,0.9-1.11,1.64-2.19c0.74-1.07,1.22-1.76,1.45-2.07c0.32-0.46,1.03-1.46,2.13-2.98
			c1.1-1.53,1.9-2.71,2.38-3.55s0.87-1.75,1.14-2.73C420.19,387.63,420.32,386.57,420.31,385.44z"/>
		
			<linearGradient id="SVGID_11_" gradientUnits="userSpaceOnUse" x1="433.3438" y1="384.4669" x2="450.2754" y2="384.4669" gradientTransform="matrix(0.9998 0.0205 -0.0205 0.9998 7.573 -8.9175)">
			<stop  offset="0.751" style="stop-color:#F1942E"/>
			<stop  offset="0.9719" style="stop-color:#FFF21F"/>
		</linearGradient>
		<path class="st10" d="M449.2,390.27l0.5,2.88c-1.64,3.66-3.26,6.49-4.88,8.48c-1.62,2-3.09,3.11-4.43,3.34
			c-1.86,0.32-3.44-0.57-4.73-2.67c-1.3-2.1-2.18-4.49-2.64-7.17c-0.18-1.02-0.25-2.02-0.23-2.98c0.02-0.96,0.1-1.77,0.25-2.42
			c0.15-0.64,0.45-1.67,0.91-3.07c2.22-6.36,4.67-9.77,7.34-10.23c1.38-0.24,2.18,0.26,2.39,1.49c0.14,0.84-0.08,2.23-0.67,4.17
			c-0.59,1.94-1.17,3.35-1.74,4.23c-1.59,2.55-2.62,4.3-3.07,5.27c-0.45,0.97-0.58,2-0.39,3.11c0.16,0.94,0.6,1.68,1.33,2.2
			c0.72,0.52,1.57,0.7,2.54,0.53c1.07-0.18,2.16-0.84,3.29-1.97C446.09,394.35,447.5,392.62,449.2,390.27z M443.85,373.07
			c-0.57,0.1-1.15-0.06-1.74-0.47c-0.6-0.41-0.96-1-1.09-1.76c-0.2-1.15,0.06-2.52,0.76-4.11c0.71-1.58,1.57-2.46,2.59-2.64
			c0.68-0.12,1.29,0.03,1.83,0.44c0.54,0.41,0.89,1.07,1.04,1.99c0.19,1.13-0.06,2.46-0.75,3.98
			C445.8,372.03,444.92,372.88,443.85,373.07z"/>
		
			<linearGradient id="SVGID_12_" gradientUnits="userSpaceOnUse" x1="449.1284" y1="386.6973" x2="470.3358" y2="386.6973" gradientTransform="matrix(0.9998 0.0205 -0.0205 0.9998 7.573 -8.9175)">
			<stop  offset="0.751" style="stop-color:#F1942E"/>
			<stop  offset="0.9719" style="stop-color:#FFF21F"/>
		</linearGradient>
		<path class="st11" d="M469.38,386.87l0.45,2.64c-1.95,3.17-3.56,5.66-4.83,7.44c-1.27,1.79-2.49,3.22-3.67,4.28
			c-1.18,1.07-2.41,1.71-3.68,1.93c-1.25,0.21-2.49-0.16-3.73-1.12c-1.24-0.96-2.31-2.32-3.22-4.07c-0.91-1.75-1.54-3.66-1.9-5.73
			c-0.31-1.79-0.24-3.43,0.2-4.94c0.44-1.51,1.45-3.53,3.02-6.07c1.86-3.02,3.66-5.42,5.4-7.19c1.74-1.77,3.17-2.76,4.31-2.95
			c0.82-0.14,1.57,0.07,2.24,0.63c0.68,0.56,1.11,1.34,1.28,2.33c0.14,0.84-0.02,2.1-0.51,3.78c-0.48,1.68-1.09,3.17-1.82,4.47
			c-0.73,1.3-1.37,2-1.92,2.09c-0.59,0.1-0.95-0.22-1.07-0.95c-0.01-0.21-0.03-0.41-0.05-0.6c-0.02-0.19-0.05-0.37-0.08-0.56
			c-0.05-0.31-0.18-0.47-0.38-0.48c-0.2-0.01-0.42,0.13-0.65,0.42c-1.95,2.23-3.28,3.79-3.99,4.68c-0.71,0.89-1.24,1.76-1.6,2.61
			c-0.36,0.85-0.46,1.69-0.32,2.53c0.27,1.55,0.92,2.74,1.94,3.56c1.03,0.82,2.24,1.12,3.62,0.88c1.43-0.25,3.04-1.18,4.82-2.8
			C465.04,392.05,467.08,389.78,469.38,386.87z"/>
		
			<linearGradient id="SVGID_13_" gradientUnits="userSpaceOnUse" x1="469.3111" y1="377.2875" x2="487.588" y2="377.2875" gradientTransform="matrix(0.9998 0.0205 -0.0205 0.9998 7.573 -8.9175)">
			<stop  offset="0.751" style="stop-color:#F1942E"/>
			<stop  offset="0.9719" style="stop-color:#FFF21F"/>
		</linearGradient>
		<path class="st12" d="M477.65,364.32l1.46-0.25c0.77-2.7,1.56-4.65,2.35-5.86c0.8-1.21,1.82-1.92,3.07-2.13
			c1.25-0.21,1.93,0.01,2.04,0.66c0.05,0.31-0.29,1.25-1.02,2.81c-0.74,1.56-1.27,2.86-1.61,3.89c0.79-0.03,1.49-0.06,2.1-0.08
			s1.1-0.04,1.44-0.05c-0.81,3.01-1.94,6.13-3.39,9.38c-0.65,0.06-1.19,0.1-1.62,0.14s-0.88,0.07-1.33,0.11
			c-0.45,0.04-0.99,0.08-1.64,0.14c-0.83,2.49-1.51,4.71-2.02,6.65c-0.52,1.94-0.87,3.7-1.05,5.27c-0.19,1.57-0.16,3.03,0.07,4.36
			c0.31,1.81,1.09,2.61,2.34,2.39c0.86-0.15,1.9-0.87,3.11-2.18c1.21-1.3,2.8-3.26,4.75-5.87l0.46,2.64
			c-4.8,8.74-8.66,13.37-11.58,13.87c-1.02,0.18-1.92-0.14-2.7-0.95c-0.78-0.81-1.3-1.94-1.55-3.38c-0.17-0.97-0.19-2.15-0.07-3.56
			c0.12-1.4,0.4-3.53,0.84-6.39c-0.26,0.37-0.51,0.73-0.74,1.08c-0.23,0.35-0.44,0.67-0.64,0.96c-0.19,0.29-0.4,0.6-0.63,0.92
			c-0.23,0.32-0.45,0.65-0.67,0.99l-0.47-2.72c1.98-2.72,4.16-7.27,6.54-13.66c-0.34,0.03-0.66,0.07-0.96,0.11
			c-0.3,0.04-0.65,0.09-1.06,0.16c-1.34,0.23-2.32,0.51-2.94,0.83c-0.26,0.13-0.5,0.26-0.72,0.39c-0.22,0.13-0.38,0.21-0.47,0.22
			s-0.15-0.06-0.18-0.21c-0.15-0.86,0.09-2.24,0.72-4.14c0.5-1.6,1.02-2.81,1.56-3.64c0.55-0.82,1.28-1.44,2.2-1.86
			C474.57,364.98,475.9,364.62,477.65,364.32z"/>
		
			<linearGradient id="SVGID_14_" gradientUnits="userSpaceOnUse" x1="486.8475" y1="374.1083" x2="503.7791" y2="374.1083" gradientTransform="matrix(0.9998 0.0205 -0.0205 0.9998 7.573 -8.9175)">
			<stop  offset="0.751" style="stop-color:#F1942E"/>
			<stop  offset="0.9719" style="stop-color:#FFF21F"/>
		</linearGradient>
		<path class="st13" d="M502.91,381.01l0.5,2.88c-1.64,3.66-3.26,6.49-4.88,8.48c-1.62,2-3.09,3.11-4.43,3.34
			c-1.86,0.32-3.44-0.57-4.73-2.67c-1.3-2.1-2.18-4.49-2.64-7.17c-0.18-1.02-0.25-2.02-0.23-2.98c0.02-0.96,0.1-1.77,0.25-2.42
			c0.15-0.64,0.45-1.67,0.91-3.07c2.22-6.36,4.67-9.77,7.34-10.23c1.38-0.24,2.18,0.26,2.39,1.49c0.14,0.84-0.08,2.23-0.67,4.17
			c-0.59,1.94-1.17,3.35-1.74,4.23c-1.59,2.55-2.62,4.3-3.07,5.27c-0.45,0.97-0.58,2-0.39,3.11c0.16,0.94,0.6,1.68,1.33,2.2
			c0.72,0.52,1.57,0.7,2.54,0.53c1.07-0.18,2.16-0.84,3.29-1.97C499.8,385.09,501.21,383.36,502.91,381.01z M497.56,363.81
			c-0.57,0.1-1.15-0.06-1.74-0.47c-0.6-0.41-0.96-1-1.09-1.76c-0.2-1.15,0.06-2.52,0.76-4.11c0.71-1.58,1.57-2.46,2.59-2.64
			c0.68-0.12,1.29,0.03,1.83,0.44c0.54,0.41,0.89,1.07,1.04,1.99c0.19,1.13-0.06,2.46-0.75,3.98
			C499.51,362.77,498.62,363.62,497.56,363.81z"/>
		
			<linearGradient id="SVGID_15_" gradientUnits="userSpaceOnUse" x1="502.6592" y1="375.9351" x2="525.2005" y2="375.9351" gradientTransform="matrix(0.9998 0.0205 -0.0205 0.9998 7.573 -8.9175)">
			<stop  offset="0.751" style="stop-color:#F1942E"/>
			<stop  offset="0.9719" style="stop-color:#FFF21F"/>
		</linearGradient>
		<path class="st14" d="M524.46,377.21l0.46,2.64c-1.23,1.83-2.25,3.09-3.06,3.77c-0.82,0.68-2.08,1.12-3.8,1.31
			c-2.25,4.55-4.5,7.02-6.74,7.41c-1.27,0.22-2.51-0.07-3.72-0.86c-1.21-0.79-2.27-1.97-3.19-3.54c-0.91-1.57-1.55-3.39-1.91-5.47
			c-0.29-1.68-0.13-3.63,0.48-5.84c0.61-2.21,1.53-4.34,2.76-6.37c1.23-2.04,2.62-3.75,4.17-5.14c1.56-1.39,3.09-2.21,4.58-2.47
			c1.07-0.18,1.94-0.14,2.62,0.14c0.68,0.27,1.07,0.75,1.19,1.44c0.09,0.52-0.07,1.17-0.47,1.95c0.9,0.06,1.55,0.31,1.95,0.74
			c0.4,0.43,0.71,1.29,0.94,2.57c0.22,1.26,0.23,2.89,0.05,4.9s-0.57,3.92-1.16,5.75l0.73,0.6l0.51-0.09
			c0.39-0.07,0.75-0.24,1.08-0.53c0.33-0.29,0.63-0.58,0.88-0.88C523.06,378.92,523.61,378.25,524.46,377.21z M515.66,368.07
			c-1.65,1.64-3.06,3.1-4.22,4.4c-1.15,1.29-2.1,2.57-2.84,3.82c-0.74,1.25-1.18,2.45-1.3,3.61c-0.06,3.04-0.07,4.67-0.03,4.91
			c0.3,1.73,1.49,2.42,3.58,2.06c0.97-0.17,2.44-1.42,4.4-3.76c-0.6-1.17-0.99-2.31-1.19-3.44c-0.29-1.65-0.28-3.39,0.01-5.21
			C514.36,372.62,514.89,370.5,515.66,368.07z"/>
		
			<linearGradient id="SVGID_16_" gradientUnits="userSpaceOnUse" x1="524.4597" y1="371.1599" x2="550.6822" y2="371.1599" gradientTransform="matrix(0.9998 0.0205 -0.0205 0.9998 7.573 -8.9175)">
			<stop  offset="0.751" style="stop-color:#F1942E"/>
			<stop  offset="0.9719" style="stop-color:#FFF21F"/>
		</linearGradient>
		<path class="st15" d="M546.1,366.23c-3.1,5.83-4.48,9.76-4.13,11.78c0.19,1.13,0.69,1.62,1.48,1.49c0.66-0.11,1.44-0.66,2.36-1.65
			c0.92-0.98,2.32-2.69,4.21-5.13l0.47,2.72c-2.59,4.23-4.6,7.31-6.04,9.23c-1.44,1.93-2.71,2.98-3.8,3.17
			c-1.86,0.32-3.03-0.93-3.52-3.77c-0.14-0.84-0.17-1.69-0.09-2.54c0.09-0.85,0.25-1.75,0.5-2.7c0.25-0.95,0.64-2.31,1.17-4.09
			c0.53-1.78,1.15-3.8,1.86-6.06c-1.16,0.99-2.52,2.77-4.08,5.37c-1.03,1.64-1.87,3.17-2.53,4.59c-0.66,1.43-1.37,3.01-2.11,4.74
			c-0.74,1.74-1.3,2.91-1.67,3.53c-0.37,0.62-0.8,0.97-1.27,1.05c-0.73,0.12-1.55-0.64-2.46-2.29c-0.92-1.65-1.57-3.65-1.98-5.98
			c-0.25-1.44-0.3-2.6-0.16-3.46c0.14-0.86,0.51-2.11,1.09-3.75c1.09-3.05,2.08-5.33,2.99-6.82c0.91-1.49,1.89-2.33,2.93-2.51
			c0.73-0.12,1.33-0.08,1.83,0.13c0.49,0.21,0.79,0.62,0.89,1.22c0.05,0.26,0.02,0.55-0.06,0.86c-0.08,0.31-0.19,0.6-0.32,0.87
			c-0.13,0.26-0.41,0.79-0.84,1.56c-2.79,5.21-4.07,8.5-3.83,9.86c0.13,0.76,0.41,1.11,0.84,1.03c0.27-0.05,0.71-0.65,1.32-1.79
			c0.61-1.14,1.39-2.65,2.34-4.5c0.95-1.85,2.12-3.82,3.5-5.89c1.38-2.07,3.01-4.12,4.88-6.15c1.03-1.18,1.95-1.83,2.74-1.97
			c0.36-0.06,0.82,0.45,1.37,1.55c0.55,1.09,0.93,2.23,1.13,3.41C547.2,363.91,546.87,364.87,546.1,366.23z"/>
	</g>
</g>
</svg>
